# xmcd CD database file
# Copyright (C) 1993-1998 Ti Kan
# 
# Track frame offsets:
#     150
#     19633
#     36779
#     43579
#     66336
#     80770
#     98966
#     113716
#     130251
#     144950
#     162462
#     167396
#     187005
#     203393
#     213527
#     229186
#     238311
#     246116
#     265895
#     277959
#     297975
# 
# Disc length: 4172 seconds
# 
# Revision: 1
# Processed by: cddbd v1.4b41PL1 Copyright (c) Steve Scherf et al.
# Submitted via: DiscPlay 4.0.4
# 
DISCID=31104a15
DTITLE=Jewel - Jewel's Gems
DYEAR=1900
DGENRE=
TTITLE0=Satellite
TTITLE1=Sometimes It Be that Way
TTITLE2=Too Darn Hot
TTITLE3=Sunshine Superman
TTITLE4=Chime Bells
TTITLE5=Foolish Games
TTITLE6=Emily
TTITLE7=I'm Fading
TTITLE8=Over The Rainbow
TTITLE9=God's Gift
TTITLE10=Cold Song
TTITLE11=Angel Needs A Ride
TTITLE12=Flower
TTITLE13=Rudolph the Red-nosed Reindeer (duet w/ Mom)
TTITLE14=V12 Cadillac
TTITLE15=Last Night
TTITLE16=Rocker Girl
TTITLE17=Tiny Love Spaces
TTITLE18=Her Pleasure is My Pain
TTITLE19=Have A Little Faith in Me
TTITLE20=Everything
EXTD=
EXTT0=
EXTT1=
EXTT2=
EXTT3=
EXTT4=
EXTT5=
EXTT6=
EXTT7=
EXTT8=
EXTT9=
EXTT10=
EXTT11=
EXTT12=
EXTT13=
EXTT14=
EXTT15=
EXTT16=
EXTT17=
EXTT18=
EXTT19=
EXTT20=
PLAYORDER=
